<?xml version="1.0" encoding="UTF-8" standalone="no"?>
<!DOCTYPE svg PUBLIC "-//W3C//DTD SVG 1.1//EN"
 "http://www.w3.org/Graphics/SVG/1.1/DTD/svg11.dtd">
<!-- Generated by graphviz version 2.38.0 (20140413.2041)
 -->
<!-- Title: controllers_diagram Pages: 1 -->
<svg width="506pt" height="519pt"
 viewBox="0.00 0.00 505.60 519.00" xmlns="http://www.w3.org/2000/svg" xmlns:xlink="http://www.w3.org/1999/xlink">
<g id="graph0" class="graph" transform="scale(1 1) rotate(0) translate(199.891 305.5)">
<title>controllers_diagram</title>
<polygon fill="none" stroke="none" points="-199.891,213.5 -199.891,-305.5 305.714,-305.5 305.714,213.5 -199.891,213.5"/>
<!-- _diagram_info -->
<g id="node1" class="node"><title>_diagram_info</title>
<text text-anchor="start" x="91.7883" y="24.9" font-family="Times,serif" font-size="13.00">Controllers diagram</text>
<text text-anchor="start" x="91.7883" y="37.9" font-family="Times,serif" font-size="13.00">Date: Nov 17 2015 &#45; 20:15</text>
<text text-anchor="start" x="91.7883" y="50.9" font-family="Times,serif" font-size="13.00">Migration version: 20151117083029</text>
<text text-anchor="start" x="91.7883" y="63.9" font-family="Times,serif" font-size="13.00">Generated by RailRoady 1.4.1</text>
<text text-anchor="start" x="91.7883" y="76.9" font-family="Times,serif" font-size="13.00">http://railroady.prestonlee.com</text>
</g>
<!-- AnswersController -->
<g id="node2" class="node"><title>AnswersController</title>
<path fill="none" stroke="black" d="M-58.269,83C-58.269,83 40.269,83 40.269,83 46.269,83 52.269,77 52.269,71 52.269,71 52.269,-65 52.269,-65 52.269,-71 46.269,-77 40.269,-77 40.269,-77 -58.269,-77 -58.269,-77 -64.269,-77 -70.269,-71 -70.269,-65 -70.269,-65 -70.269,71 -70.269,71 -70.269,77 -64.269,83 -58.269,83"/>
<text text-anchor="middle" x="-9" y="-61.8" font-family="Times,serif" font-size="14.00">AnswersController</text>
<polyline fill="none" stroke="black" points="-70.269,-55 52.269,-55 "/>
<text text-anchor="start" x="-62.269" y="-39.8" font-family="Times,serif" font-size="14.00">create</text>
<text text-anchor="start" x="-62.269" y="-25.8" font-family="Times,serif" font-size="14.00">new</text>
<text text-anchor="start" x="-62.269" y="-11.8" font-family="Times,serif" font-size="14.00">show</text>
<polyline fill="none" stroke="black" points="-70.269,-5 52.269,-5 "/>
<polyline fill="none" stroke="black" points="-70.269,19 52.269,19 "/>
<text text-anchor="start" x="-62.269" y="34.2" font-family="Times,serif" font-size="14.00">_layout</text>
<text text-anchor="start" x="-62.269" y="48.2" font-family="Times,serif" font-size="14.00">answer_params</text>
<text text-anchor="start" x="-62.269" y="62.2" font-family="Times,serif" font-size="14.00">set_answer</text>
<text text-anchor="start" x="-62.269" y="76.2" font-family="Times,serif" font-size="14.00">set_question</text>
</g>
<!-- ApplicationController -->
<g id="node3" class="node"><title>ApplicationController</title>
<path fill="none" stroke="black" d="M-71.8208,-113C-71.8208,-113 43.8208,-113 43.8208,-113 49.8208,-113 55.8208,-119 55.8208,-125 55.8208,-125 55.8208,-193 55.8208,-193 55.8208,-199 49.8208,-205 43.8208,-205 43.8208,-205 -71.8208,-205 -71.8208,-205 -77.8208,-205 -83.8208,-199 -83.8208,-193 -83.8208,-193 -83.8208,-125 -83.8208,-125 -83.8208,-119 -77.8208,-113 -71.8208,-113"/>
<text text-anchor="middle" x="-14" y="-189.8" font-family="Times,serif" font-size="14.00">ApplicationController</text>
<polyline fill="none" stroke="black" points="-83.8208,-183 55.8208,-183 "/>
<polyline fill="none" stroke="black" points="-83.8208,-159 55.8208,-159 "/>
<polyline fill="none" stroke="black" points="-83.8208,-135 55.8208,-135 "/>
<text text-anchor="start" x="-75.8208" y="-119.8" font-family="Times,serif" font-size="14.00">_layout</text>
</g>
<!-- HomeController -->
<g id="node4" class="node"><title>HomeController</title>
<path fill="none" stroke="black" d="M12.1206,209C12.1206,209 95.8794,209 95.8794,209 101.879,209 107.879,203 107.879,197 107.879,197 107.879,131 107.879,131 107.879,125 101.879,119 95.8794,119 95.8794,119 12.1206,119 12.1206,119 6.12061,119 0.120605,125 0.120605,131 0.120605,131 0.120605,197 0.120605,197 0.120605,203 6.12061,209 12.1206,209"/>
<text text-anchor="middle" x="54" y="134.2" font-family="Times,serif" font-size="14.00">HomeController</text>
<polyline fill="none" stroke="black" points="0.120605,141 107.879,141 "/>
<text text-anchor="start" x="8.12061" y="156.2" font-family="Times,serif" font-size="14.00">index</text>
<polyline fill="none" stroke="black" points="0.120605,163 107.879,163 "/>
<polyline fill="none" stroke="black" points="0.120605,187 107.879,187 "/>
<text text-anchor="start" x="8.12061" y="202.2" font-family="Times,serif" font-size="14.00">_layout</text>
</g>
<!-- QuestionsController -->
<g id="node5" class="node"><title>QuestionsController</title>
<path fill="none" stroke="black" d="M96.2275,-15C96.2275,-15 201.772,-15 201.772,-15 207.772,-15 213.772,-21 213.772,-27 213.772,-27 213.772,-149 213.772,-149 213.772,-155 207.772,-161 201.772,-161 201.772,-161 96.2275,-161 96.2275,-161 90.2275,-161 84.2275,-155 84.2275,-149 84.2275,-149 84.2275,-27 84.2275,-27 84.2275,-21 90.2275,-15 96.2275,-15"/>
<text text-anchor="middle" x="149" y="-145.8" font-family="Times,serif" font-size="14.00">QuestionsController</text>
<polyline fill="none" stroke="black" points="84.2275,-139 213.772,-139 "/>
<text text-anchor="start" x="92.2275" y="-123.8" font-family="Times,serif" font-size="14.00">create</text>
<text text-anchor="start" x="92.2275" y="-109.8" font-family="Times,serif" font-size="14.00">new</text>
<text text-anchor="start" x="92.2275" y="-95.8" font-family="Times,serif" font-size="14.00">show</text>
<polyline fill="none" stroke="black" points="84.2275,-89 213.772,-89 "/>
<polyline fill="none" stroke="black" points="84.2275,-65 213.772,-65 "/>
<text text-anchor="start" x="92.2275" y="-49.8" font-family="Times,serif" font-size="14.00">_layout</text>
<text text-anchor="start" x="92.2275" y="-35.8" font-family="Times,serif" font-size="14.00">question_params</text>
<text text-anchor="start" x="92.2275" y="-21.8" font-family="Times,serif" font-size="14.00">set_question</text>
</g>
<!-- TagsController -->
<g id="node6" class="node"><title>TagsController</title>
<path fill="none" stroke="black" d="M-183.891,13C-183.891,13 -108.109,13 -108.109,13 -102.109,13 -96.1094,7 -96.1094,1 -96.1094,1 -96.1094,-65 -96.1094,-65 -96.1094,-71 -102.109,-77 -108.109,-77 -108.109,-77 -183.891,-77 -183.891,-77 -189.891,-77 -195.891,-71 -195.891,-65 -195.891,-65 -195.891,1 -195.891,1 -195.891,7 -189.891,13 -183.891,13"/>
<text text-anchor="middle" x="-146" y="-61.8" font-family="Times,serif" font-size="14.00">TagsController</text>
<polyline fill="none" stroke="black" points="-195.891,-55 -96.1094,-55 "/>
<text text-anchor="start" x="-187.891" y="-39.8" font-family="Times,serif" font-size="14.00">index</text>
<polyline fill="none" stroke="black" points="-195.891,-33 -96.1094,-33 "/>
<polyline fill="none" stroke="black" points="-195.891,-9 -96.1094,-9 "/>
<text text-anchor="start" x="-187.891" y="6.2" font-family="Times,serif" font-size="14.00">_layout</text>
</g>
<!-- UsersController -->
<g id="node7" class="node"><title>UsersController</title>
<path fill="none" stroke="black" d="M208.286,-197C208.286,-197 289.714,-197 289.714,-197 295.714,-197 301.714,-203 301.714,-209 301.714,-209 301.714,-289 301.714,-289 301.714,-295 295.714,-301 289.714,-301 289.714,-301 208.286,-301 208.286,-301 202.286,-301 196.286,-295 196.286,-289 196.286,-289 196.286,-209 196.286,-209 196.286,-203 202.286,-197 208.286,-197"/>
<text text-anchor="middle" x="249" y="-285.8" font-family="Times,serif" font-size="14.00">UsersController</text>
<polyline fill="none" stroke="black" points="196.286,-279 301.714,-279 "/>
<text text-anchor="start" x="204.286" y="-263.8" font-family="Times,serif" font-size="14.00">show</text>
<polyline fill="none" stroke="black" points="196.286,-257 301.714,-257 "/>
<polyline fill="none" stroke="black" points="196.286,-233 301.714,-233 "/>
<text text-anchor="start" x="204.286" y="-217.8" font-family="Times,serif" font-size="14.00">_layout</text>
<text text-anchor="start" x="204.286" y="-203.8" font-family="Times,serif" font-size="14.00">set_user</text>
</g>
</g>
</svg>
