<?xml version="1.0" encoding="UTF-8" standalone="no"?>
<!DOCTYPE svg PUBLIC "-//W3C//DTD SVG 1.1//EN"
 "http://www.w3.org/Graphics/SVG/1.1/DTD/svg11.dtd">
<!-- Generated by graphviz version 2.38.0 (20140413.2041)
 -->
<!-- Title: controllers_diagram Pages: 1 -->
<svg width="316pt" height="225pt"
 viewBox="0.00 0.00 316.27 225.00" xmlns="http://www.w3.org/2000/svg" xmlns:xlink="http://www.w3.org/1999/xlink">
<g id="graph0" class="graph" transform="scale(1 1) rotate(0) translate(116.45 179.5)">
<title>controllers_diagram</title>
<polygon fill="none" stroke="none" points="-116.45,45.5 -116.45,-179.5 199.821,-179.5 199.821,45.5 -116.45,45.5"/>
<!-- _diagram_info -->
<g id="node1" class="node"><title>_diagram_info</title>
<text text-anchor="start" x="-104.45" y="-17.1" font-family="Times,serif" font-size="13.00">Controllers diagram</text>
<text text-anchor="start" x="-104.45" y="-4.1" font-family="Times,serif" font-size="13.00">Date: Nov 06 2015 &#45; 14:17</text>
<text text-anchor="start" x="-104.45" y="8.9" font-family="Times,serif" font-size="13.00">Migration version: 20151105162154</text>
<text text-anchor="start" x="-104.45" y="21.9" font-family="Times,serif" font-size="13.00">Generated by RailRoady 1.4.1</text>
<text text-anchor="start" x="-104.45" y="34.9" font-family="Times,serif" font-size="13.00">http://railroady.prestonlee.com</text>
</g>
<!-- ApplicationController -->
<g id="node2" class="node"><title>ApplicationController</title>
<path fill="none" stroke="black" d="M68.1792,-57C68.1792,-57 183.821,-57 183.821,-57 189.821,-57 195.821,-63 195.821,-69 195.821,-69 195.821,-137 195.821,-137 195.821,-143 189.821,-149 183.821,-149 183.821,-149 68.1792,-149 68.1792,-149 62.1792,-149 56.1792,-143 56.1792,-137 56.1792,-137 56.1792,-69 56.1792,-69 56.1792,-63 62.1792,-57 68.1792,-57"/>
<text text-anchor="middle" x="126" y="-133.8" font-family="Times,serif" font-size="14.00">ApplicationController</text>
<polyline fill="none" stroke="black" points="56.1792,-127 195.821,-127 "/>
<polyline fill="none" stroke="black" points="56.1792,-103 195.821,-103 "/>
<polyline fill="none" stroke="black" points="56.1792,-79 195.821,-79 "/>
<text text-anchor="start" x="64.1792" y="-63.8" font-family="Times,serif" font-size="14.00">_layout</text>
</g>
<!-- HomeController -->
<g id="node3" class="node"><title>HomeController</title>
<path fill="none" stroke="black" d="M-71.8794,-85C-71.8794,-85 11.8794,-85 11.8794,-85 17.8794,-85 23.8794,-91 23.8794,-97 23.8794,-97 23.8794,-163 23.8794,-163 23.8794,-169 17.8794,-175 11.8794,-175 11.8794,-175 -71.8794,-175 -71.8794,-175 -77.8794,-175 -83.8794,-169 -83.8794,-163 -83.8794,-163 -83.8794,-97 -83.8794,-97 -83.8794,-91 -77.8794,-85 -71.8794,-85"/>
<text text-anchor="middle" x="-30" y="-159.8" font-family="Times,serif" font-size="14.00">HomeController</text>
<polyline fill="none" stroke="black" points="-83.8794,-153 23.8794,-153 "/>
<text text-anchor="start" x="-75.8794" y="-137.8" font-family="Times,serif" font-size="14.00">index</text>
<polyline fill="none" stroke="black" points="-83.8794,-131 23.8794,-131 "/>
<polyline fill="none" stroke="black" points="-83.8794,-107 23.8794,-107 "/>
<text text-anchor="start" x="-75.8794" y="-91.8" font-family="Times,serif" font-size="14.00">_layout</text>
</g>
</g>
</svg>
