<?xml version="1.0" encoding="UTF-8" standalone="no"?>
<!DOCTYPE svg PUBLIC "-//W3C//DTD SVG 1.1//EN"
 "http://www.w3.org/Graphics/SVG/1.1/DTD/svg11.dtd">
<!-- Generated by graphviz version 2.38.0 (20140413.2041)
 -->
<!-- Title: controllers_diagram Pages: 1 -->
<svg width="354pt" height="339pt"
 viewBox="0.00 0.00 354.09 339.00" xmlns="http://www.w3.org/2000/svg" xmlns:xlink="http://www.w3.org/1999/xlink">
<g id="graph0" class="graph" transform="scale(1 1) rotate(0) translate(116.212 209.5)">
<title>controllers_diagram</title>
<polygon fill="none" stroke="none" points="-116.212,129.5 -116.212,-209.5 237.879,-209.5 237.879,129.5 -116.212,129.5"/>
<!-- _diagram_info -->
<g id="node1" class="node"><title>_diagram_info</title>
<text text-anchor="start" x="-104.212" y="-17.1" font-family="Times,serif" font-size="13.00">Controllers diagram</text>
<text text-anchor="start" x="-104.212" y="-4.1" font-family="Times,serif" font-size="13.00">Date: Nov 12 2015 &#45; 02:13</text>
<text text-anchor="start" x="-104.212" y="8.9" font-family="Times,serif" font-size="13.00">Migration version: 20151110102435</text>
<text text-anchor="start" x="-104.212" y="21.9" font-family="Times,serif" font-size="13.00">Generated by RailRoady 1.4.1</text>
<text text-anchor="start" x="-104.212" y="34.9" font-family="Times,serif" font-size="13.00">http://railroady.prestonlee.com</text>
</g>
<!-- ApplicationController -->
<g id="node2" class="node"><title>ApplicationController</title>
<path fill="none" stroke="black" d="M-99.8208,-113C-99.8208,-113 15.8208,-113 15.8208,-113 21.8208,-113 27.8208,-119 27.8208,-125 27.8208,-125 27.8208,-193 27.8208,-193 27.8208,-199 21.8208,-205 15.8208,-205 15.8208,-205 -99.8208,-205 -99.8208,-205 -105.821,-205 -111.821,-199 -111.821,-193 -111.821,-193 -111.821,-125 -111.821,-125 -111.821,-119 -105.821,-113 -99.8208,-113"/>
<text text-anchor="middle" x="-42" y="-189.8" font-family="Times,serif" font-size="14.00">ApplicationController</text>
<polyline fill="none" stroke="black" points="-111.821,-183 27.8208,-183 "/>
<polyline fill="none" stroke="black" points="-111.821,-159 27.8208,-159 "/>
<polyline fill="none" stroke="black" points="-111.821,-135 27.8208,-135 "/>
<text text-anchor="start" x="-103.821" y="-119.8" font-family="Times,serif" font-size="14.00">_layout</text>
</g>
<!-- HomeController -->
<g id="node3" class="node"><title>HomeController</title>
<path fill="none" stroke="black" d="M138.121,125C138.121,125 221.879,125 221.879,125 227.879,125 233.879,119 233.879,113 233.879,113 233.879,47 233.879,47 233.879,41 227.879,35 221.879,35 221.879,35 138.121,35 138.121,35 132.121,35 126.121,41 126.121,47 126.121,47 126.121,113 126.121,113 126.121,119 132.121,125 138.121,125"/>
<text text-anchor="middle" x="180" y="50.2" font-family="Times,serif" font-size="14.00">HomeController</text>
<polyline fill="none" stroke="black" points="126.121,57 233.879,57 "/>
<text text-anchor="start" x="134.121" y="72.2" font-family="Times,serif" font-size="14.00">index</text>
<polyline fill="none" stroke="black" points="126.121,79 233.879,79 "/>
<polyline fill="none" stroke="black" points="126.121,103 233.879,103 "/>
<text text-anchor="start" x="134.121" y="118.2" font-family="Times,serif" font-size="14.00">_layout</text>
</g>
<!-- QuestionsController -->
<g id="node4" class="node"><title>QuestionsController</title>
<path fill="none" stroke="black" d="M68.2275,-57C68.2275,-57 173.772,-57 173.772,-57 179.772,-57 185.772,-63 185.772,-69 185.772,-69 185.772,-163 185.772,-163 185.772,-169 179.772,-175 173.772,-175 173.772,-175 68.2275,-175 68.2275,-175 62.2275,-175 56.2275,-169 56.2275,-163 56.2275,-163 56.2275,-69 56.2275,-69 56.2275,-63 62.2275,-57 68.2275,-57"/>
<text text-anchor="middle" x="121" y="-159.8" font-family="Times,serif" font-size="14.00">QuestionsController</text>
<polyline fill="none" stroke="black" points="56.2275,-153 185.772,-153 "/>
<text text-anchor="start" x="64.2275" y="-137.8" font-family="Times,serif" font-size="14.00">create</text>
<text text-anchor="start" x="64.2275" y="-123.8" font-family="Times,serif" font-size="14.00">new</text>
<polyline fill="none" stroke="black" points="56.2275,-117 185.772,-117 "/>
<polyline fill="none" stroke="black" points="56.2275,-93 185.772,-93 "/>
<text text-anchor="start" x="64.2275" y="-77.8" font-family="Times,serif" font-size="14.00">_layout</text>
<text text-anchor="start" x="64.2275" y="-63.8" font-family="Times,serif" font-size="14.00">question_params</text>
</g>
</g>
</svg>
