<?xml version="1.0" encoding="UTF-8" standalone="no"?>
<!DOCTYPE svg PUBLIC "-//W3C//DTD SVG 1.1//EN"
 "http://www.w3.org/Graphics/SVG/1.1/DTD/svg11.dtd">
<!-- Generated by graphviz version 2.38.0 (20140413.2041)
 -->
<!-- Title: controllers_diagram Pages: 1 -->
<svg width="379pt" height="401pt"
 viewBox="0.00 0.00 378.56 401.00" xmlns="http://www.w3.org/2000/svg" xmlns:xlink="http://www.w3.org/1999/xlink">
<g id="graph0" class="graph" transform="scale(1 1) rotate(0) translate(93.8208 202.5)">
<title>controllers_diagram</title>
<polygon fill="none" stroke="none" points="-93.8208,198.5 -93.8208,-202.5 284.736,-202.5 284.736,198.5 -93.8208,198.5"/>
<!-- _diagram_info -->
<g id="node1" class="node"><title>_diagram_info</title>
<text text-anchor="start" x="83.2644" y="15.9" font-family="Times,serif" font-size="13.00">Controllers diagram</text>
<text text-anchor="start" x="83.2644" y="28.9" font-family="Times,serif" font-size="13.00">Date: Nov 12 2015 &#45; 21:59</text>
<text text-anchor="start" x="83.2644" y="41.9" font-family="Times,serif" font-size="13.00">Migration version: 20151111173954</text>
<text text-anchor="start" x="83.2644" y="54.9" font-family="Times,serif" font-size="13.00">Generated by RailRoady 1.4.1</text>
<text text-anchor="start" x="83.2644" y="67.9" font-family="Times,serif" font-size="13.00">http://railroady.prestonlee.com</text>
</g>
<!-- AnswersController -->
<g id="node2" class="node"><title>AnswersController</title>
<path fill="none" stroke="black" d="M-63.269,89C-63.269,89 35.269,89 35.269,89 41.269,89 47.269,83 47.269,77 47.269,77 47.269,-59 47.269,-59 47.269,-65 41.269,-71 35.269,-71 35.269,-71 -63.269,-71 -63.269,-71 -69.269,-71 -75.269,-65 -75.269,-59 -75.269,-59 -75.269,77 -75.269,77 -75.269,83 -69.269,89 -63.269,89"/>
<text text-anchor="middle" x="-14" y="-55.8" font-family="Times,serif" font-size="14.00">AnswersController</text>
<polyline fill="none" stroke="black" points="-75.269,-49 47.269,-49 "/>
<text text-anchor="start" x="-67.269" y="-33.8" font-family="Times,serif" font-size="14.00">create</text>
<text text-anchor="start" x="-67.269" y="-19.8" font-family="Times,serif" font-size="14.00">new</text>
<text text-anchor="start" x="-67.269" y="-5.8" font-family="Times,serif" font-size="14.00">show</text>
<polyline fill="none" stroke="black" points="-75.269,1 47.269,1 "/>
<polyline fill="none" stroke="black" points="-75.269,25 47.269,25 "/>
<text text-anchor="start" x="-67.269" y="40.2" font-family="Times,serif" font-size="14.00">_layout</text>
<text text-anchor="start" x="-67.269" y="54.2" font-family="Times,serif" font-size="14.00">answer_params</text>
<text text-anchor="start" x="-67.269" y="68.2" font-family="Times,serif" font-size="14.00">set_answer</text>
<text text-anchor="start" x="-67.269" y="82.2" font-family="Times,serif" font-size="14.00">set_question</text>
</g>
<!-- ApplicationController -->
<g id="node3" class="node"><title>ApplicationController</title>
<path fill="none" stroke="black" d="M-77.8208,-106C-77.8208,-106 37.8208,-106 37.8208,-106 43.8208,-106 49.8208,-112 49.8208,-118 49.8208,-118 49.8208,-186 49.8208,-186 49.8208,-192 43.8208,-198 37.8208,-198 37.8208,-198 -77.8208,-198 -77.8208,-198 -83.8208,-198 -89.8208,-192 -89.8208,-186 -89.8208,-186 -89.8208,-118 -89.8208,-118 -89.8208,-112 -83.8208,-106 -77.8208,-106"/>
<text text-anchor="middle" x="-20" y="-182.8" font-family="Times,serif" font-size="14.00">ApplicationController</text>
<polyline fill="none" stroke="black" points="-89.8208,-176 49.8208,-176 "/>
<polyline fill="none" stroke="black" points="-89.8208,-152 49.8208,-152 "/>
<polyline fill="none" stroke="black" points="-89.8208,-128 49.8208,-128 "/>
<text text-anchor="start" x="-81.8208" y="-112.8" font-family="Times,serif" font-size="14.00">_layout</text>
</g>
<!-- HomeController -->
<g id="node4" class="node"><title>HomeController</title>
<path fill="none" stroke="black" d="M87.1206,194C87.1206,194 170.879,194 170.879,194 176.879,194 182.879,188 182.879,182 182.879,182 182.879,116 182.879,116 182.879,110 176.879,104 170.879,104 170.879,104 87.1206,104 87.1206,104 81.1206,104 75.1206,110 75.1206,116 75.1206,116 75.1206,182 75.1206,182 75.1206,188 81.1206,194 87.1206,194"/>
<text text-anchor="middle" x="129" y="119.2" font-family="Times,serif" font-size="14.00">HomeController</text>
<polyline fill="none" stroke="black" points="75.1206,126 182.879,126 "/>
<text text-anchor="start" x="83.1206" y="141.2" font-family="Times,serif" font-size="14.00">index</text>
<polyline fill="none" stroke="black" points="75.1206,148 182.879,148 "/>
<polyline fill="none" stroke="black" points="75.1206,172 182.879,172 "/>
<text text-anchor="start" x="83.1206" y="187.2" font-family="Times,serif" font-size="14.00">_layout</text>
</g>
<!-- QuestionsController -->
<g id="node5" class="node"><title>QuestionsController</title>
<path fill="none" stroke="black" d="M87.2275,-31C87.2275,-31 192.772,-31 192.772,-31 198.772,-31 204.772,-37 204.772,-43 204.772,-43 204.772,-165 204.772,-165 204.772,-171 198.772,-177 192.772,-177 192.772,-177 87.2275,-177 87.2275,-177 81.2275,-177 75.2275,-171 75.2275,-165 75.2275,-165 75.2275,-43 75.2275,-43 75.2275,-37 81.2275,-31 87.2275,-31"/>
<text text-anchor="middle" x="140" y="-161.8" font-family="Times,serif" font-size="14.00">QuestionsController</text>
<polyline fill="none" stroke="black" points="75.2275,-155 204.772,-155 "/>
<text text-anchor="start" x="83.2275" y="-139.8" font-family="Times,serif" font-size="14.00">create</text>
<text text-anchor="start" x="83.2275" y="-125.8" font-family="Times,serif" font-size="14.00">new</text>
<text text-anchor="start" x="83.2275" y="-111.8" font-family="Times,serif" font-size="14.00">show</text>
<polyline fill="none" stroke="black" points="75.2275,-105 204.772,-105 "/>
<polyline fill="none" stroke="black" points="75.2275,-81 204.772,-81 "/>
<text text-anchor="start" x="83.2275" y="-65.8" font-family="Times,serif" font-size="14.00">_layout</text>
<text text-anchor="start" x="83.2275" y="-51.8" font-family="Times,serif" font-size="14.00">question_params</text>
<text text-anchor="start" x="83.2275" y="-37.8" font-family="Times,serif" font-size="14.00">set_question</text>
</g>
</g>
</svg>
