<?xml version="1.0" encoding="UTF-8" standalone="no"?>
<!DOCTYPE svg PUBLIC "-//W3C//DTD SVG 1.1//EN"
 "http://www.w3.org/Graphics/SVG/1.1/DTD/svg11.dtd">
<!-- Generated by graphviz version 2.38.0 (20140413.2041)
 -->
<!-- Title: models_diagram Pages: 1 -->
<svg width="452pt" height="442pt"
 viewBox="0.00 0.00 452.26 442.00" xmlns="http://www.w3.org/2000/svg" xmlns:xlink="http://www.w3.org/1999/xlink">
<g id="graph0" class="graph" transform="scale(1 1) rotate(0) translate(4 438)">
<title>models_diagram</title>
<polygon fill="none" stroke="none" points="-4,4 -4,-438 448.259,-438 448.259,4 -4,4"/>
<!-- _diagram_info -->
<g id="node1" class="node"><title>_diagram_info</title>
<text text-anchor="start" x="8" y="-321.6" font-family="Times,serif" font-size="13.00">Models diagram</text>
<text text-anchor="start" x="8" y="-308.6" font-family="Times,serif" font-size="13.00">Date: Nov 12 2015 &#45; 02:13</text>
<text text-anchor="start" x="8" y="-295.6" font-family="Times,serif" font-size="13.00">Migration version: 20151110102435</text>
<text text-anchor="start" x="8" y="-282.6" font-family="Times,serif" font-size="13.00">Generated by RailRoady 1.4.1</text>
<text text-anchor="start" x="8" y="-269.6" font-family="Times,serif" font-size="13.00">http://railroady.prestonlee.com</text>
</g>
<!-- Question -->
<g id="node2" class="node"><title>Question</title>
<path fill="none" stroke="black" d="M279.706,-0.5C279.706,-0.5 388.717,-0.5 388.717,-0.5 394.717,-0.5 400.717,-6.5 400.717,-12.5 400.717,-12.5 400.717,-116.5 400.717,-116.5 400.717,-122.5 394.717,-128.5 388.717,-128.5 388.717,-128.5 279.706,-128.5 279.706,-128.5 273.706,-128.5 267.706,-122.5 267.706,-116.5 267.706,-116.5 267.706,-12.5 267.706,-12.5 267.706,-6.5 273.706,-0.5 279.706,-0.5"/>
<text text-anchor="middle" x="334.212" y="-113.3" font-family="Times,serif" font-size="14.00">Question</text>
<polyline fill="none" stroke="black" points="267.706,-106.5 400.717,-106.5 "/>
<text text-anchor="start" x="275.706" y="-91.3" font-family="Times,serif" font-size="14.00">id :int(11)</text>
<text text-anchor="start" x="275.706" y="-77.3" font-family="Times,serif" font-size="14.00">title :varchar(255)</text>
<text text-anchor="start" x="275.706" y="-63.3" font-family="Times,serif" font-size="14.00">sentence :text</text>
<text text-anchor="start" x="275.706" y="-49.3" font-family="Times,serif" font-size="14.00">time_limit :int(11)</text>
<text text-anchor="start" x="275.706" y="-35.3" font-family="Times,serif" font-size="14.00">created_at :datetime</text>
<text text-anchor="start" x="275.706" y="-21.3" font-family="Times,serif" font-size="14.00">updated_at :datetime</text>
<text text-anchor="start" x="275.706" y="-7.3" font-family="Times,serif" font-size="14.00">user_id :int(11)</text>
</g>
<!-- User -->
<g id="node3" class="node"><title>User</title>
<path fill="none" stroke="black" d="M236.165,-165.5C236.165,-165.5 432.259,-165.5 432.259,-165.5 438.259,-165.5 444.259,-171.5 444.259,-177.5 444.259,-177.5 444.259,-421.5 444.259,-421.5 444.259,-427.5 438.259,-433.5 432.259,-433.5 432.259,-433.5 236.165,-433.5 236.165,-433.5 230.165,-433.5 224.165,-427.5 224.165,-421.5 224.165,-421.5 224.165,-177.5 224.165,-177.5 224.165,-171.5 230.165,-165.5 236.165,-165.5"/>
<text text-anchor="middle" x="334.212" y="-418.3" font-family="Times,serif" font-size="14.00">User</text>
<polyline fill="none" stroke="black" points="224.165,-411.5 444.259,-411.5 "/>
<text text-anchor="start" x="232.165" y="-396.3" font-family="Times,serif" font-size="14.00">id :int(11)</text>
<text text-anchor="start" x="232.165" y="-382.3" font-family="Times,serif" font-size="14.00">email :varchar(255)</text>
<text text-anchor="start" x="232.165" y="-368.3" font-family="Times,serif" font-size="14.00">encrypted_password :varchar(255)</text>
<text text-anchor="start" x="232.165" y="-354.3" font-family="Times,serif" font-size="14.00">reset_password_token :varchar(255)</text>
<text text-anchor="start" x="232.165" y="-340.3" font-family="Times,serif" font-size="14.00">reset_password_sent_at :datetime</text>
<text text-anchor="start" x="232.165" y="-326.3" font-family="Times,serif" font-size="14.00">remember_created_at :datetime</text>
<text text-anchor="start" x="232.165" y="-312.3" font-family="Times,serif" font-size="14.00">sign_in_count :int(11)</text>
<text text-anchor="start" x="232.165" y="-298.3" font-family="Times,serif" font-size="14.00">current_sign_in_at :datetime</text>
<text text-anchor="start" x="232.165" y="-284.3" font-family="Times,serif" font-size="14.00">last_sign_in_at :datetime</text>
<text text-anchor="start" x="232.165" y="-270.3" font-family="Times,serif" font-size="14.00">current_sign_in_ip :varchar(255)</text>
<text text-anchor="start" x="232.165" y="-256.3" font-family="Times,serif" font-size="14.00">last_sign_in_ip :varchar(255)</text>
<text text-anchor="start" x="232.165" y="-242.3" font-family="Times,serif" font-size="14.00">confirmation_token :varchar(255)</text>
<text text-anchor="start" x="232.165" y="-228.3" font-family="Times,serif" font-size="14.00">confirmed_at :datetime</text>
<text text-anchor="start" x="232.165" y="-214.3" font-family="Times,serif" font-size="14.00">confirmation_sent_at :datetime</text>
<text text-anchor="start" x="232.165" y="-200.3" font-family="Times,serif" font-size="14.00">unconfirmed_email :varchar(255)</text>
<text text-anchor="start" x="232.165" y="-186.3" font-family="Times,serif" font-size="14.00">created_at :datetime</text>
<text text-anchor="start" x="232.165" y="-172.3" font-family="Times,serif" font-size="14.00">updated_at :datetime</text>
</g>
<!-- User&#45;&gt;Question -->
<g id="edge1" class="edge"><title>User&#45;&gt;Question</title>
<path fill="none" stroke="#14a6d7" d="M334.212,-157.306C334.212,-150.936 334.212,-144.67 334.212,-138.589"/>
<ellipse fill="none" stroke="#14a6d7" cx="334.212" cy="-161.327" rx="4" ry="4"/>
<polygon fill="#14a6d7" stroke="#14a6d7" points="334.212,-138.542 338.712,-128.542 334.212,-133.542 334.212,-128.542 334.212,-128.542 334.212,-128.542 334.212,-133.542 329.712,-128.542 334.212,-138.542 334.212,-138.542"/>
</g>
</g>
</svg>
