<?xml version="1.0" encoding="UTF-8" standalone="no"?>
<!DOCTYPE svg PUBLIC "-//W3C//DTD SVG 1.1//EN"
 "http://www.w3.org/Graphics/SVG/1.1/DTD/svg11.dtd">
<!-- Generated by graphviz version 2.38.0 (20140413.2041)
 -->
<!-- Title: models_diagram Pages: 1 -->
<svg width="301pt" height="153pt"
 viewBox="0.00 0.00 301.25 153.00" xmlns="http://www.w3.org/2000/svg" xmlns:xlink="http://www.w3.org/1999/xlink">
<g id="graph0" class="graph" transform="scale(1 1) rotate(0) translate(4 149)">
<title>models_diagram</title>
<polygon fill="none" stroke="none" points="-4,4 -4,-149 297.251,-149 297.251,4 -4,4"/>
<!-- _diagram_info -->
<g id="node1" class="node"><title>_diagram_info</title>
<text text-anchor="start" x="8" y="-130.6" font-family="Times,serif" font-size="13.00">Models diagram</text>
<text text-anchor="start" x="8" y="-117.6" font-family="Times,serif" font-size="13.00">Date: Nov 12 2015 &#45; 02:13</text>
<text text-anchor="start" x="8" y="-104.6" font-family="Times,serif" font-size="13.00">Migration version: 20151110102435</text>
<text text-anchor="start" x="8" y="-91.6" font-family="Times,serif" font-size="13.00">Generated by RailRoady 1.4.1</text>
<text text-anchor="start" x="8" y="-78.6" font-family="Times,serif" font-size="13.00">http://railroady.prestonlee.com</text>
</g>
<!-- Question -->
<g id="node2" class="node"><title>Question</title>
<ellipse fill="none" stroke="black" cx="251.212" cy="-18" rx="42.0784" ry="18"/>
<text text-anchor="middle" x="251.212" y="-13.8" font-family="Times,serif" font-size="14.00">Question</text>
</g>
<!-- User -->
<g id="node3" class="node"><title>User</title>
<ellipse fill="none" stroke="black" cx="251.212" cy="-108.5" rx="27" ry="18"/>
<text text-anchor="middle" x="251.212" y="-104.3" font-family="Times,serif" font-size="14.00">User</text>
</g>
<!-- User&#45;&gt;Question -->
<g id="edge1" class="edge"><title>User&#45;&gt;Question</title>
<path fill="none" stroke="#14294b" d="M251.212,-82.189C251.212,-70.9711 251.212,-57.7517 251.212,-46.3113"/>
<ellipse fill="none" stroke="#14294b" cx="251.212" cy="-86.4363" rx="4" ry="4"/>
<polygon fill="#14294b" stroke="#14294b" points="251.212,-46.0113 255.712,-36.0113 251.212,-41.0113 251.212,-36.0113 251.212,-36.0113 251.212,-36.0113 251.212,-41.0113 246.712,-36.0113 251.212,-46.0113 251.212,-46.0113"/>
</g>
</g>
</svg>
