<?xml version="1.0" encoding="UTF-8" standalone="no"?>
<!DOCTYPE svg PUBLIC "-//W3C//DTD SVG 1.1//EN"
 "http://www.w3.org/Graphics/SVG/1.1/DTD/svg11.dtd">
<!-- Generated by graphviz version 2.38.0 (20140413.2041)
 -->
<!-- Title: models_diagram Pages: 1 -->
<svg width="455pt" height="593pt"
 viewBox="0.00 0.00 455.24 593.00" xmlns="http://www.w3.org/2000/svg" xmlns:xlink="http://www.w3.org/1999/xlink">
<g id="graph0" class="graph" transform="scale(1 1) rotate(0) translate(4 589)">
<title>models_diagram</title>
<polygon fill="none" stroke="none" points="-4,4 -4,-589 451.241,-589 451.241,4 -4,4"/>
<!-- _diagram_info -->
<g id="node1" class="node"><title>_diagram_info</title>
<text text-anchor="start" x="8" y="-472.6" font-family="Times,serif" font-size="13.00">Models diagram</text>
<text text-anchor="start" x="8" y="-459.6" font-family="Times,serif" font-size="13.00">Date: Nov 12 2015 &#45; 21:59</text>
<text text-anchor="start" x="8" y="-446.6" font-family="Times,serif" font-size="13.00">Migration version: 20151111173954</text>
<text text-anchor="start" x="8" y="-433.6" font-family="Times,serif" font-size="13.00">Generated by RailRoady 1.4.1</text>
<text text-anchor="start" x="8" y="-420.6" font-family="Times,serif" font-size="13.00">http://railroady.prestonlee.com</text>
</g>
<!-- Answer -->
<g id="node2" class="node"><title>Answer</title>
<path fill="none" stroke="black" d="M278.23,-0.5C278.23,-0.5 387.241,-0.5 387.241,-0.5 393.241,-0.5 399.241,-6.5 399.241,-12.5 399.241,-12.5 399.241,-102.5 399.241,-102.5 399.241,-108.5 393.241,-114.5 387.241,-114.5 387.241,-114.5 278.23,-114.5 278.23,-114.5 272.23,-114.5 266.23,-108.5 266.23,-102.5 266.23,-102.5 266.23,-12.5 266.23,-12.5 266.23,-6.5 272.23,-0.5 278.23,-0.5"/>
<text text-anchor="middle" x="332.736" y="-99.3" font-family="Times,serif" font-size="14.00">Answer</text>
<polyline fill="none" stroke="black" points="266.23,-92.5 399.241,-92.5 "/>
<text text-anchor="start" x="274.23" y="-77.3" font-family="Times,serif" font-size="14.00">id :int(11)</text>
<text text-anchor="start" x="274.23" y="-63.3" font-family="Times,serif" font-size="14.00">sentence :text</text>
<text text-anchor="start" x="274.23" y="-49.3" font-family="Times,serif" font-size="14.00">created_at :datetime</text>
<text text-anchor="start" x="274.23" y="-35.3" font-family="Times,serif" font-size="14.00">updated_at :datetime</text>
<text text-anchor="start" x="274.23" y="-21.3" font-family="Times,serif" font-size="14.00">question_id :int(11)</text>
<text text-anchor="start" x="274.23" y="-7.3" font-family="Times,serif" font-size="14.00">user_id :int(11)</text>
</g>
<!-- Question -->
<g id="node3" class="node"><title>Question</title>
<path fill="none" stroke="black" d="M326.23,-151.5C326.23,-151.5 435.241,-151.5 435.241,-151.5 441.241,-151.5 447.241,-157.5 447.241,-163.5 447.241,-163.5 447.241,-267.5 447.241,-267.5 447.241,-273.5 441.241,-279.5 435.241,-279.5 435.241,-279.5 326.23,-279.5 326.23,-279.5 320.23,-279.5 314.23,-273.5 314.23,-267.5 314.23,-267.5 314.23,-163.5 314.23,-163.5 314.23,-157.5 320.23,-151.5 326.23,-151.5"/>
<text text-anchor="middle" x="380.736" y="-264.3" font-family="Times,serif" font-size="14.00">Question</text>
<polyline fill="none" stroke="black" points="314.23,-257.5 447.241,-257.5 "/>
<text text-anchor="start" x="322.23" y="-242.3" font-family="Times,serif" font-size="14.00">id :int(11)</text>
<text text-anchor="start" x="322.23" y="-228.3" font-family="Times,serif" font-size="14.00">title :varchar(255)</text>
<text text-anchor="start" x="322.23" y="-214.3" font-family="Times,serif" font-size="14.00">sentence :text</text>
<text text-anchor="start" x="322.23" y="-200.3" font-family="Times,serif" font-size="14.00">time_limit :int(11)</text>
<text text-anchor="start" x="322.23" y="-186.3" font-family="Times,serif" font-size="14.00">created_at :datetime</text>
<text text-anchor="start" x="322.23" y="-172.3" font-family="Times,serif" font-size="14.00">updated_at :datetime</text>
<text text-anchor="start" x="322.23" y="-158.3" font-family="Times,serif" font-size="14.00">user_id :int(11)</text>
</g>
<!-- Question&#45;&gt;Answer -->
<g id="edge1" class="edge"><title>Question&#45;&gt;Answer</title>
<path fill="none" stroke="#e39ca4" d="M358.962,-143.737C356.997,-137.349 355.011,-130.897 353.059,-124.552"/>
<ellipse fill="none" stroke="#e39ca4" cx="360.174" cy="-147.675" rx="4.00001" ry="4.00001"/>
<polygon fill="#e39ca4" stroke="#e39ca4" points="352.967,-124.253 354.328,-113.372 351.497,-119.474 350.027,-114.696 350.027,-114.696 350.027,-114.696 351.497,-119.474 345.726,-116.019 352.967,-124.253 352.967,-124.253"/>
</g>
<!-- User -->
<g id="node4" class="node"><title>User</title>
<path fill="none" stroke="black" d="M235.689,-316.5C235.689,-316.5 431.782,-316.5 431.782,-316.5 437.782,-316.5 443.782,-322.5 443.782,-328.5 443.782,-328.5 443.782,-572.5 443.782,-572.5 443.782,-578.5 437.782,-584.5 431.782,-584.5 431.782,-584.5 235.689,-584.5 235.689,-584.5 229.689,-584.5 223.689,-578.5 223.689,-572.5 223.689,-572.5 223.689,-328.5 223.689,-328.5 223.689,-322.5 229.689,-316.5 235.689,-316.5"/>
<text text-anchor="middle" x="333.736" y="-569.3" font-family="Times,serif" font-size="14.00">User</text>
<polyline fill="none" stroke="black" points="223.689,-562.5 443.782,-562.5 "/>
<text text-anchor="start" x="231.689" y="-547.3" font-family="Times,serif" font-size="14.00">id :int(11)</text>
<text text-anchor="start" x="231.689" y="-533.3" font-family="Times,serif" font-size="14.00">email :varchar(255)</text>
<text text-anchor="start" x="231.689" y="-519.3" font-family="Times,serif" font-size="14.00">encrypted_password :varchar(255)</text>
<text text-anchor="start" x="231.689" y="-505.3" font-family="Times,serif" font-size="14.00">reset_password_token :varchar(255)</text>
<text text-anchor="start" x="231.689" y="-491.3" font-family="Times,serif" font-size="14.00">reset_password_sent_at :datetime</text>
<text text-anchor="start" x="231.689" y="-477.3" font-family="Times,serif" font-size="14.00">remember_created_at :datetime</text>
<text text-anchor="start" x="231.689" y="-463.3" font-family="Times,serif" font-size="14.00">sign_in_count :int(11)</text>
<text text-anchor="start" x="231.689" y="-449.3" font-family="Times,serif" font-size="14.00">current_sign_in_at :datetime</text>
<text text-anchor="start" x="231.689" y="-435.3" font-family="Times,serif" font-size="14.00">last_sign_in_at :datetime</text>
<text text-anchor="start" x="231.689" y="-421.3" font-family="Times,serif" font-size="14.00">current_sign_in_ip :varchar(255)</text>
<text text-anchor="start" x="231.689" y="-407.3" font-family="Times,serif" font-size="14.00">last_sign_in_ip :varchar(255)</text>
<text text-anchor="start" x="231.689" y="-393.3" font-family="Times,serif" font-size="14.00">confirmation_token :varchar(255)</text>
<text text-anchor="start" x="231.689" y="-379.3" font-family="Times,serif" font-size="14.00">confirmed_at :datetime</text>
<text text-anchor="start" x="231.689" y="-365.3" font-family="Times,serif" font-size="14.00">confirmation_sent_at :datetime</text>
<text text-anchor="start" x="231.689" y="-351.3" font-family="Times,serif" font-size="14.00">unconfirmed_email :varchar(255)</text>
<text text-anchor="start" x="231.689" y="-337.3" font-family="Times,serif" font-size="14.00">created_at :datetime</text>
<text text-anchor="start" x="231.689" y="-323.3" font-family="Times,serif" font-size="14.00">updated_at :datetime</text>
</g>
<!-- User&#45;&gt;Answer -->
<g id="edge3" class="edge"><title>User&#45;&gt;Answer</title>
<path fill="none" stroke="#012d9e" d="M305.911,-308.222C299.824,-258.404 297.172,-202.09 304.736,-151 306.021,-142.317 307.95,-133.321 310.206,-124.501"/>
<ellipse fill="none" stroke="#012d9e" cx="306.413" cy="-312.192" rx="4.00001" ry="4.00001"/>
<polygon fill="#012d9e" stroke="#012d9e" points="310.262,-124.297 317.22,-115.821 311.569,-119.47 312.876,-114.644 312.876,-114.644 312.876,-114.644 311.569,-119.47 308.532,-113.468 310.262,-124.297 310.262,-124.297"/>
</g>
<!-- User&#45;&gt;Question -->
<g id="edge2" class="edge"><title>User&#45;&gt;Question</title>
<path fill="none" stroke="#c9829b" d="M362.217,-308.306C363.502,-301.936 364.766,-295.67 365.992,-289.589"/>
<ellipse fill="none" stroke="#c9829b" cx="361.39" cy="-312.406" rx="4.00001" ry="4.00001"/>
<polygon fill="#c9829b" stroke="#c9829b" points="366.042,-289.344 372.43,-280.432 367.03,-284.443 368.019,-279.542 368.019,-279.542 368.019,-279.542 367.03,-284.443 363.608,-278.652 366.042,-289.344 366.042,-289.344"/>
</g>
</g>
</svg>
