<?xml version="1.0" encoding="UTF-8" standalone="no"?>
<!DOCTYPE svg PUBLIC "-//W3C//DTD SVG 1.1//EN"
 "http://www.w3.org/Graphics/SVG/1.1/DTD/svg11.dtd">
<!-- Generated by graphviz version 2.38.0 (20140413.2041)
 -->
<!-- Title: models_diagram Pages: 1 -->
<svg width="456pt" height="593pt"
 viewBox="0.00 0.00 455.72 593.00" xmlns="http://www.w3.org/2000/svg" xmlns:xlink="http://www.w3.org/1999/xlink">
<g id="graph0" class="graph" transform="scale(1 1) rotate(0) translate(4 589)">
<title>models_diagram</title>
<polygon fill="none" stroke="none" points="-4,4 -4,-589 451.717,-589 451.717,4 -4,4"/>
<!-- _diagram_info -->
<g id="node1" class="node"><title>_diagram_info</title>
<text text-anchor="start" x="8" y="-472.6" font-family="Times,serif" font-size="13.00">Models diagram</text>
<text text-anchor="start" x="8" y="-459.6" font-family="Times,serif" font-size="13.00">Date: Nov 17 2015 &#45; 20:15</text>
<text text-anchor="start" x="8" y="-446.6" font-family="Times,serif" font-size="13.00">Migration version: 20151117083029</text>
<text text-anchor="start" x="8" y="-433.6" font-family="Times,serif" font-size="13.00">Generated by RailRoady 1.4.1</text>
<text text-anchor="start" x="8" y="-420.6" font-family="Times,serif" font-size="13.00">http://railroady.prestonlee.com</text>
</g>
<!-- Answer -->
<g id="node2" class="node"><title>Answer</title>
<path fill="none" stroke="black" d="M278.706,-0.5C278.706,-0.5 387.717,-0.5 387.717,-0.5 393.717,-0.5 399.717,-6.5 399.717,-12.5 399.717,-12.5 399.717,-102.5 399.717,-102.5 399.717,-108.5 393.717,-114.5 387.717,-114.5 387.717,-114.5 278.706,-114.5 278.706,-114.5 272.706,-114.5 266.706,-108.5 266.706,-102.5 266.706,-102.5 266.706,-12.5 266.706,-12.5 266.706,-6.5 272.706,-0.5 278.706,-0.5"/>
<text text-anchor="middle" x="333.212" y="-99.3" font-family="Times,serif" font-size="14.00">Answer</text>
<polyline fill="none" stroke="black" points="266.706,-92.5 399.717,-92.5 "/>
<text text-anchor="start" x="274.706" y="-77.3" font-family="Times,serif" font-size="14.00">id :int(11)</text>
<text text-anchor="start" x="274.706" y="-63.3" font-family="Times,serif" font-size="14.00">sentence :text</text>
<text text-anchor="start" x="274.706" y="-49.3" font-family="Times,serif" font-size="14.00">created_at :datetime</text>
<text text-anchor="start" x="274.706" y="-35.3" font-family="Times,serif" font-size="14.00">updated_at :datetime</text>
<text text-anchor="start" x="274.706" y="-21.3" font-family="Times,serif" font-size="14.00">question_id :int(11)</text>
<text text-anchor="start" x="274.706" y="-7.3" font-family="Times,serif" font-size="14.00">user_id :int(11)</text>
</g>
<!-- Question -->
<g id="node3" class="node"><title>Question</title>
<path fill="none" stroke="black" d="M326.706,-151.5C326.706,-151.5 435.717,-151.5 435.717,-151.5 441.717,-151.5 447.717,-157.5 447.717,-163.5 447.717,-163.5 447.717,-267.5 447.717,-267.5 447.717,-273.5 441.717,-279.5 435.717,-279.5 435.717,-279.5 326.706,-279.5 326.706,-279.5 320.706,-279.5 314.706,-273.5 314.706,-267.5 314.706,-267.5 314.706,-163.5 314.706,-163.5 314.706,-157.5 320.706,-151.5 326.706,-151.5"/>
<text text-anchor="middle" x="381.212" y="-264.3" font-family="Times,serif" font-size="14.00">Question</text>
<polyline fill="none" stroke="black" points="314.706,-257.5 447.717,-257.5 "/>
<text text-anchor="start" x="322.706" y="-242.3" font-family="Times,serif" font-size="14.00">id :int(11)</text>
<text text-anchor="start" x="322.706" y="-228.3" font-family="Times,serif" font-size="14.00">title :varchar(255)</text>
<text text-anchor="start" x="322.706" y="-214.3" font-family="Times,serif" font-size="14.00">sentence :text</text>
<text text-anchor="start" x="322.706" y="-200.3" font-family="Times,serif" font-size="14.00">time_limit :int(11)</text>
<text text-anchor="start" x="322.706" y="-186.3" font-family="Times,serif" font-size="14.00">created_at :datetime</text>
<text text-anchor="start" x="322.706" y="-172.3" font-family="Times,serif" font-size="14.00">updated_at :datetime</text>
<text text-anchor="start" x="322.706" y="-158.3" font-family="Times,serif" font-size="14.00">user_id :int(11)</text>
</g>
<!-- Question&#45;&gt;Answer -->
<g id="edge1" class="edge"><title>Question&#45;&gt;Answer</title>
<path fill="none" stroke="#f9e833" d="M359.438,-143.737C357.473,-137.349 355.488,-130.897 353.535,-124.552"/>
<ellipse fill="none" stroke="#f9e833" cx="360.65" cy="-147.675" rx="4.00001" ry="4.00001"/>
<polygon fill="#f9e833" stroke="#f9e833" points="353.444,-124.253 354.804,-113.372 351.973,-119.474 350.503,-114.696 350.503,-114.696 350.503,-114.696 351.973,-119.474 346.202,-116.019 353.444,-124.253 353.444,-124.253"/>
</g>
<!-- User -->
<g id="node4" class="node"><title>User</title>
<path fill="none" stroke="black" d="M236.165,-316.5C236.165,-316.5 432.259,-316.5 432.259,-316.5 438.259,-316.5 444.259,-322.5 444.259,-328.5 444.259,-328.5 444.259,-572.5 444.259,-572.5 444.259,-578.5 438.259,-584.5 432.259,-584.5 432.259,-584.5 236.165,-584.5 236.165,-584.5 230.165,-584.5 224.165,-578.5 224.165,-572.5 224.165,-572.5 224.165,-328.5 224.165,-328.5 224.165,-322.5 230.165,-316.5 236.165,-316.5"/>
<text text-anchor="middle" x="334.212" y="-569.3" font-family="Times,serif" font-size="14.00">User</text>
<polyline fill="none" stroke="black" points="224.165,-562.5 444.259,-562.5 "/>
<text text-anchor="start" x="232.165" y="-547.3" font-family="Times,serif" font-size="14.00">id :int(11)</text>
<text text-anchor="start" x="232.165" y="-533.3" font-family="Times,serif" font-size="14.00">email :varchar(255)</text>
<text text-anchor="start" x="232.165" y="-519.3" font-family="Times,serif" font-size="14.00">encrypted_password :varchar(255)</text>
<text text-anchor="start" x="232.165" y="-505.3" font-family="Times,serif" font-size="14.00">reset_password_token :varchar(255)</text>
<text text-anchor="start" x="232.165" y="-491.3" font-family="Times,serif" font-size="14.00">reset_password_sent_at :datetime</text>
<text text-anchor="start" x="232.165" y="-477.3" font-family="Times,serif" font-size="14.00">remember_created_at :datetime</text>
<text text-anchor="start" x="232.165" y="-463.3" font-family="Times,serif" font-size="14.00">sign_in_count :int(11)</text>
<text text-anchor="start" x="232.165" y="-449.3" font-family="Times,serif" font-size="14.00">current_sign_in_at :datetime</text>
<text text-anchor="start" x="232.165" y="-435.3" font-family="Times,serif" font-size="14.00">last_sign_in_at :datetime</text>
<text text-anchor="start" x="232.165" y="-421.3" font-family="Times,serif" font-size="14.00">current_sign_in_ip :varchar(255)</text>
<text text-anchor="start" x="232.165" y="-407.3" font-family="Times,serif" font-size="14.00">last_sign_in_ip :varchar(255)</text>
<text text-anchor="start" x="232.165" y="-393.3" font-family="Times,serif" font-size="14.00">confirmation_token :varchar(255)</text>
<text text-anchor="start" x="232.165" y="-379.3" font-family="Times,serif" font-size="14.00">confirmed_at :datetime</text>
<text text-anchor="start" x="232.165" y="-365.3" font-family="Times,serif" font-size="14.00">confirmation_sent_at :datetime</text>
<text text-anchor="start" x="232.165" y="-351.3" font-family="Times,serif" font-size="14.00">unconfirmed_email :varchar(255)</text>
<text text-anchor="start" x="232.165" y="-337.3" font-family="Times,serif" font-size="14.00">created_at :datetime</text>
<text text-anchor="start" x="232.165" y="-323.3" font-family="Times,serif" font-size="14.00">updated_at :datetime</text>
</g>
<!-- User&#45;&gt;Answer -->
<g id="edge3" class="edge"><title>User&#45;&gt;Answer</title>
<path fill="none" stroke="#551500" d="M306.387,-308.222C300.3,-258.404 297.649,-202.09 305.212,-151 306.497,-142.317 308.426,-133.321 310.683,-124.501"/>
<ellipse fill="none" stroke="#551500" cx="306.889" cy="-312.192" rx="4.00001" ry="4.00001"/>
<polygon fill="#551500" stroke="#551500" points="310.738,-124.297 317.696,-115.821 312.045,-119.47 313.352,-114.644 313.352,-114.644 313.352,-114.644 312.045,-119.47 309.009,-113.468 310.738,-124.297 310.738,-124.297"/>
</g>
<!-- User&#45;&gt;Question -->
<g id="edge2" class="edge"><title>User&#45;&gt;Question</title>
<path fill="none" stroke="#3b74a0" d="M362.693,-308.306C363.978,-301.936 365.242,-295.67 366.468,-289.589"/>
<ellipse fill="none" stroke="#3b74a0" cx="361.866" cy="-312.406" rx="4.00001" ry="4.00001"/>
<polygon fill="#3b74a0" stroke="#3b74a0" points="366.518,-289.344 372.906,-280.432 367.506,-284.443 368.495,-279.542 368.495,-279.542 368.495,-279.542 367.506,-284.443 364.084,-278.652 366.518,-289.344 366.518,-289.344"/>
</g>
</g>
</svg>
