<?xml version="1.0" encoding="UTF-8" standalone="no"?>
<!DOCTYPE svg PUBLIC "-//W3C//DTD SVG 1.1//EN"
 "http://www.w3.org/Graphics/SVG/1.1/DTD/svg11.dtd">
<!-- Generated by graphviz version 2.38.0 (20140413.2041)
 -->
<!-- Title: models_diagram Pages: 1 -->
<svg width="336pt" height="225pt"
 viewBox="0.00 0.00 336.25 225.00" xmlns="http://www.w3.org/2000/svg" xmlns:xlink="http://www.w3.org/1999/xlink">
<g id="graph0" class="graph" transform="scale(1 1) rotate(0) translate(4 221)">
<title>models_diagram</title>
<polygon fill="none" stroke="none" points="-4,4 -4,-221 332.251,-221 332.251,4 -4,4"/>
<!-- _diagram_info -->
<g id="node1" class="node"><title>_diagram_info</title>
<text text-anchor="start" x="8" y="-202.6" font-family="Times,serif" font-size="13.00">Models diagram</text>
<text text-anchor="start" x="8" y="-189.6" font-family="Times,serif" font-size="13.00">Date: Nov 17 2015 &#45; 20:15</text>
<text text-anchor="start" x="8" y="-176.6" font-family="Times,serif" font-size="13.00">Migration version: 20151117083029</text>
<text text-anchor="start" x="8" y="-163.6" font-family="Times,serif" font-size="13.00">Generated by RailRoady 1.4.1</text>
<text text-anchor="start" x="8" y="-150.6" font-family="Times,serif" font-size="13.00">http://railroady.prestonlee.com</text>
</g>
<!-- Answer -->
<g id="node2" class="node"><title>Answer</title>
<ellipse fill="none" stroke="black" cx="251.212" cy="-18" rx="37.7266" ry="18"/>
<text text-anchor="middle" x="251.212" y="-13.8" font-family="Times,serif" font-size="14.00">Answer</text>
</g>
<!-- Question -->
<g id="node3" class="node"><title>Question</title>
<ellipse fill="none" stroke="black" cx="286.212" cy="-90" rx="42.0784" ry="18"/>
<text text-anchor="middle" x="286.212" y="-85.8" font-family="Times,serif" font-size="14.00">Question</text>
</g>
<!-- Question&#45;&gt;Answer -->
<g id="edge1" class="edge"><title>Question&#45;&gt;Answer</title>
<path fill="none" stroke="#b620d5" d="M274.069,-64.7144C270.862,-58.3016 267.391,-51.3577 264.144,-44.8648"/>
<ellipse fill="none" stroke="#b620d5" cx="275.95" cy="-68.4772" rx="4.00002" ry="4.00002"/>
<polygon fill="#b620d5" stroke="#b620d5" points="264.078,-44.7333 263.631,-33.7765 261.842,-40.2611 259.606,-35.789 259.606,-35.789 259.606,-35.789 261.842,-40.2611 255.581,-37.8015 264.078,-44.7333 264.078,-44.7333"/>
</g>
<!-- User -->
<g id="node4" class="node"><title>User</title>
<ellipse fill="none" stroke="black" cx="251.212" cy="-180.5" rx="27" ry="18"/>
<text text-anchor="middle" x="251.212" y="-176.3" font-family="Times,serif" font-size="14.00">User</text>
</g>
<!-- User&#45;&gt;Answer -->
<g id="edge3" class="edge"><title>User&#45;&gt;Answer</title>
<path fill="none" stroke="#28496a" d="M243.421,-154.959C237.492,-133.172 231.008,-100.469 235.212,-72 236.509,-63.2121 238.955,-53.8616 241.551,-45.5001"/>
<ellipse fill="none" stroke="#28496a" cx="244.545" cy="-158.897" rx="4.00001" ry="4.00001"/>
<polygon fill="#28496a" stroke="#28496a" points="241.588,-45.3906 248.998,-37.3078 243.157,-40.6431 244.726,-35.8957 244.726,-35.8957 244.726,-35.8957 243.157,-40.6431 240.453,-34.4836 241.588,-45.3906 241.588,-45.3906"/>
</g>
<!-- User&#45;&gt;Question -->
<g id="edge2" class="edge"><title>User&#45;&gt;Question</title>
<path fill="none" stroke="#9cd440" d="M260.746,-155.391C265.398,-143.628 271.005,-129.452 275.772,-117.398"/>
<ellipse fill="none" stroke="#9cd440" cx="259.266" cy="-159.134" rx="4.00001" ry="4.00001"/>
<polygon fill="#9cd440" stroke="#9cd440" points="275.861,-117.172 283.724,-109.527 277.7,-112.522 279.539,-107.872 279.539,-107.872 279.539,-107.872 277.7,-112.522 275.354,-106.217 275.861,-117.172 275.861,-117.172"/>
</g>
</g>
</svg>
