<?xml version="1.0" encoding="UTF-8" standalone="no"?>
<!DOCTYPE svg PUBLIC "-//W3C//DTD SVG 1.1//EN"
 "http://www.w3.org/Graphics/SVG/1.1/DTD/svg11.dtd">
<!-- Generated by graphviz version 2.38.0 (20140413.2041)
 -->
<!-- Title: models_diagram Pages: 1 -->
<svg width="336pt" height="225pt"
 viewBox="0.00 0.00 335.77 225.00" xmlns="http://www.w3.org/2000/svg" xmlns:xlink="http://www.w3.org/1999/xlink">
<g id="graph0" class="graph" transform="scale(1 1) rotate(0) translate(4 221)">
<title>models_diagram</title>
<polygon fill="none" stroke="none" points="-4,4 -4,-221 331.775,-221 331.775,4 -4,4"/>
<!-- _diagram_info -->
<g id="node1" class="node"><title>_diagram_info</title>
<text text-anchor="start" x="8" y="-202.6" font-family="Times,serif" font-size="13.00">Models diagram</text>
<text text-anchor="start" x="8" y="-189.6" font-family="Times,serif" font-size="13.00">Date: Nov 12 2015 &#45; 21:59</text>
<text text-anchor="start" x="8" y="-176.6" font-family="Times,serif" font-size="13.00">Migration version: 20151111173954</text>
<text text-anchor="start" x="8" y="-163.6" font-family="Times,serif" font-size="13.00">Generated by RailRoady 1.4.1</text>
<text text-anchor="start" x="8" y="-150.6" font-family="Times,serif" font-size="13.00">http://railroady.prestonlee.com</text>
</g>
<!-- Answer -->
<g id="node2" class="node"><title>Answer</title>
<ellipse fill="none" stroke="black" cx="250.736" cy="-18" rx="37.7266" ry="18"/>
<text text-anchor="middle" x="250.736" y="-13.8" font-family="Times,serif" font-size="14.00">Answer</text>
</g>
<!-- Question -->
<g id="node3" class="node"><title>Question</title>
<ellipse fill="none" stroke="black" cx="285.736" cy="-90" rx="42.0784" ry="18"/>
<text text-anchor="middle" x="285.736" y="-85.8" font-family="Times,serif" font-size="14.00">Question</text>
</g>
<!-- Question&#45;&gt;Answer -->
<g id="edge1" class="edge"><title>Question&#45;&gt;Answer</title>
<path fill="none" stroke="#731c56" d="M273.593,-64.7144C270.386,-58.3016 266.914,-51.3577 263.668,-44.8648"/>
<ellipse fill="none" stroke="#731c56" cx="275.474" cy="-68.4772" rx="4.00002" ry="4.00002"/>
<polygon fill="#731c56" stroke="#731c56" points="263.602,-44.7333 263.155,-33.7765 261.366,-40.2611 259.13,-35.789 259.13,-35.789 259.13,-35.789 261.366,-40.2611 255.105,-37.8015 263.602,-44.7333 263.602,-44.7333"/>
</g>
<!-- User -->
<g id="node4" class="node"><title>User</title>
<ellipse fill="none" stroke="black" cx="250.736" cy="-180.5" rx="27" ry="18"/>
<text text-anchor="middle" x="250.736" y="-176.3" font-family="Times,serif" font-size="14.00">User</text>
</g>
<!-- User&#45;&gt;Answer -->
<g id="edge3" class="edge"><title>User&#45;&gt;Answer</title>
<path fill="none" stroke="#e13b29" d="M242.945,-154.959C237.016,-133.172 230.532,-100.469 234.736,-72 236.033,-63.2121 238.479,-53.8616 241.075,-45.5001"/>
<ellipse fill="none" stroke="#e13b29" cx="244.069" cy="-158.897" rx="4.00001" ry="4.00001"/>
<polygon fill="#e13b29" stroke="#e13b29" points="241.112,-45.3906 248.522,-37.3078 242.68,-40.6431 244.249,-35.8957 244.249,-35.8957 244.249,-35.8957 242.68,-40.6431 239.977,-34.4836 241.112,-45.3906 241.112,-45.3906"/>
</g>
<!-- User&#45;&gt;Question -->
<g id="edge2" class="edge"><title>User&#45;&gt;Question</title>
<path fill="none" stroke="#a6c0f4" d="M260.27,-155.391C264.922,-143.628 270.529,-129.452 275.296,-117.398"/>
<ellipse fill="none" stroke="#a6c0f4" cx="258.79" cy="-159.134" rx="4.00001" ry="4.00001"/>
<polygon fill="#a6c0f4" stroke="#a6c0f4" points="275.385,-117.172 283.248,-109.527 277.224,-112.522 279.063,-107.872 279.063,-107.872 279.063,-107.872 277.224,-112.522 274.878,-106.217 275.385,-117.172 275.385,-117.172"/>
</g>
</g>
</svg>
