<?xml version="1.0" encoding="UTF-8" standalone="no"?>
<!DOCTYPE svg PUBLIC "-//W3C//DTD SVG 1.1//EN"
 "http://www.w3.org/Graphics/SVG/1.1/DTD/svg11.dtd">
<!-- Generated by graphviz version 2.38.0 (20140413.2041)
 -->
<!-- Title: models_diagram Pages: 1 -->
<svg width="452pt" height="277pt"
 viewBox="0.00 0.00 452.50 277.00" xmlns="http://www.w3.org/2000/svg" xmlns:xlink="http://www.w3.org/1999/xlink">
<g id="graph0" class="graph" transform="scale(1 1) rotate(0) translate(4 273)">
<title>models_diagram</title>
<polygon fill="none" stroke="none" points="-4,4 -4,-273 448.497,-273 448.497,4 -4,4"/>
<!-- _diagram_info -->
<g id="node1" class="node"><title>_diagram_info</title>
<text text-anchor="start" x="8" y="-156.6" font-family="Times,serif" font-size="13.00">Models diagram</text>
<text text-anchor="start" x="8" y="-143.6" font-family="Times,serif" font-size="13.00">Date: Nov 06 2015 &#45; 14:17</text>
<text text-anchor="start" x="8" y="-130.6" font-family="Times,serif" font-size="13.00">Migration version: 20151105162154</text>
<text text-anchor="start" x="8" y="-117.6" font-family="Times,serif" font-size="13.00">Generated by RailRoady 1.4.1</text>
<text text-anchor="start" x="8" y="-104.6" font-family="Times,serif" font-size="13.00">http://railroady.prestonlee.com</text>
</g>
<!-- User -->
<g id="node2" class="node"><title>User</title>
<path fill="none" stroke="black" d="M236.403,-0.5C236.403,-0.5 432.497,-0.5 432.497,-0.5 438.497,-0.5 444.497,-6.5 444.497,-12.5 444.497,-12.5 444.497,-256.5 444.497,-256.5 444.497,-262.5 438.497,-268.5 432.497,-268.5 432.497,-268.5 236.403,-268.5 236.403,-268.5 230.403,-268.5 224.403,-262.5 224.403,-256.5 224.403,-256.5 224.403,-12.5 224.403,-12.5 224.403,-6.5 230.403,-0.5 236.403,-0.5"/>
<text text-anchor="middle" x="334.45" y="-253.3" font-family="Times,serif" font-size="14.00">User</text>
<polyline fill="none" stroke="black" points="224.403,-246.5 444.497,-246.5 "/>
<text text-anchor="start" x="232.403" y="-231.3" font-family="Times,serif" font-size="14.00">id :int(11)</text>
<text text-anchor="start" x="232.403" y="-217.3" font-family="Times,serif" font-size="14.00">email :varchar(255)</text>
<text text-anchor="start" x="232.403" y="-203.3" font-family="Times,serif" font-size="14.00">encrypted_password :varchar(255)</text>
<text text-anchor="start" x="232.403" y="-189.3" font-family="Times,serif" font-size="14.00">reset_password_token :varchar(255)</text>
<text text-anchor="start" x="232.403" y="-175.3" font-family="Times,serif" font-size="14.00">reset_password_sent_at :datetime</text>
<text text-anchor="start" x="232.403" y="-161.3" font-family="Times,serif" font-size="14.00">remember_created_at :datetime</text>
<text text-anchor="start" x="232.403" y="-147.3" font-family="Times,serif" font-size="14.00">sign_in_count :int(11)</text>
<text text-anchor="start" x="232.403" y="-133.3" font-family="Times,serif" font-size="14.00">current_sign_in_at :datetime</text>
<text text-anchor="start" x="232.403" y="-119.3" font-family="Times,serif" font-size="14.00">last_sign_in_at :datetime</text>
<text text-anchor="start" x="232.403" y="-105.3" font-family="Times,serif" font-size="14.00">current_sign_in_ip :varchar(255)</text>
<text text-anchor="start" x="232.403" y="-91.3" font-family="Times,serif" font-size="14.00">last_sign_in_ip :varchar(255)</text>
<text text-anchor="start" x="232.403" y="-77.3" font-family="Times,serif" font-size="14.00">confirmation_token :varchar(255)</text>
<text text-anchor="start" x="232.403" y="-63.3" font-family="Times,serif" font-size="14.00">confirmed_at :datetime</text>
<text text-anchor="start" x="232.403" y="-49.3" font-family="Times,serif" font-size="14.00">confirmation_sent_at :datetime</text>
<text text-anchor="start" x="232.403" y="-35.3" font-family="Times,serif" font-size="14.00">unconfirmed_email :varchar(255)</text>
<text text-anchor="start" x="232.403" y="-21.3" font-family="Times,serif" font-size="14.00">created_at :datetime</text>
<text text-anchor="start" x="232.403" y="-7.3" font-family="Times,serif" font-size="14.00">updated_at :datetime</text>
</g>
</g>
</svg>
